<svg width="286" height="125" viewBox="0 0 286 125" fill="none" xmlns="http://www.w3.org/2000/svg">
<mask id="mask0" mask-type="alpha" maskUnits="userSpaceOnUse" x="0" y="0" width="286" height="125">
<rect width="286" height="125" rx="10" fill="white"/>
</mask>
<g mask="url(#mask0)">
<rect x="55.8254" y="62.3452" width="79" height="104" rx="8.5" transform="rotate(-6.5499 55.8254 62.3452)" fill="white" stroke="#444F69" stroke-width="3"/>
<path d="M69.9567 84.6005C69.8167 83.3814 70.6915 82.2797 71.9106 82.1397L73.4568 81.9622C74.6758 81.8222 75.7776 82.697 75.9175 83.916L76.3485 87.6696C76.4152 88.2509 75.7458 88.6228 75.2875 88.2589C74.1383 87.3465 72.4671 87.5384 71.5546 88.6875C71.1907 89.1458 70.4544 88.9353 70.3877 88.354L69.9567 84.6005Z" fill="white" stroke="#444F69" stroke-width="2"/>
<circle cx="72.1122" cy="77.0836" r="6" transform="rotate(-6.5499 72.1122 77.0836)" fill="white" stroke="#444F69" stroke-width="2"/>
<line x1="88.0082" y1="75.2584" x2="127.747" y2="70.6957" stroke="#444F69" stroke-width="4"/>
<line x1="88.9203" y1="83.2062" x2="128.659" y2="78.6435" stroke="#444F69" stroke-width="4"/>
<line x1="68.2375" y1="104.706" x2="130.826" y2="97.5195" stroke="#444F69" stroke-width="2"/>
<line x1="69.1516" y1="112.654" x2="131.74" y2="105.467" stroke="#444F69" stroke-width="2"/>
<line x1="70.0637" y1="120.601" x2="132.652" y2="113.415" stroke="#444F69" stroke-width="2"/>
<line x1="70.9758" y1="128.549" x2="133.565" y2="121.363" stroke="#444F69" stroke-width="2"/>
<rect x="-10.8787" y="44.2409" width="79" height="104" rx="8.5" transform="rotate(3.53905 -10.8787 44.2409)" fill="white" stroke="#444F69" stroke-width="3"/>
<path d="M-0.864849 68.6273C-0.789103 67.4026 0.26515 66.4711 1.48989 66.5469L3.04327 66.643C4.26801 66.7187 5.19945 67.773 5.12371 68.9977L4.89049 72.7687C4.85436 73.3527 4.1301 73.6016 3.74263 73.163C2.77109 72.0634 1.09208 71.9596 -0.00756018 72.9311C-0.446109 73.3186 -1.13419 72.9824 -1.09807 72.3983L-0.864849 68.6273Z" fill="white" stroke="#444F69" stroke-width="2"/>
<circle cx="2.57603" cy="61.6045" r="6" transform="rotate(3.53905 2.57603 61.6045)" fill="white" stroke="#444F69" stroke-width="2"/>
<line x1="18.5453" y1="62.5921" x2="58.4691" y2="65.0613" stroke="#444F69" stroke-width="4"/>
<line x1="18.0512" y1="70.5769" x2="57.9749" y2="73.046" stroke="#444F69" stroke-width="4"/>
<line x1="-6.0789" y1="88.1209" x2="56.801" y2="92.0098" stroke="#444F69" stroke-width="2"/>
<line x1="-6.57108" y1="96.1056" x2="56.3088" y2="99.9945" stroke="#444F69" stroke-width="2"/>
<line x1="-7.06522" y1="104.09" x2="55.8146" y2="107.979" stroke="#444F69" stroke-width="2"/>
<line x1="-7.55936" y1="112.075" x2="55.3205" y2="115.964" stroke="#444F69" stroke-width="2"/>
<rect x="223.573" y="53.974" width="79" height="104" rx="8.5" transform="rotate(-7.29844 223.573 53.974)" fill="white" stroke="#444F69" stroke-width="3"/>
<path d="M237.993 76.0427C237.837 74.8256 238.697 73.7126 239.915 73.5567L241.458 73.359C242.675 73.2031 243.788 74.0634 243.944 75.2805L244.424 79.0281C244.499 79.6085 243.834 79.9891 243.371 79.6312C242.21 78.7339 240.542 78.9476 239.644 80.1086C239.286 80.5716 238.547 80.3708 238.473 79.7903L237.993 76.0427Z" fill="white" stroke="#444F69" stroke-width="2"/>
<circle cx="240.051" cy="68.4983" r="6" transform="rotate(-7.29844 240.051 68.4983)" fill="white" stroke="#444F69" stroke-width="2"/>
<line x1="255.922" y1="66.4657" x2="295.598" y2="61.3842" stroke="#444F69" stroke-width="4"/>
<line x1="256.937" y1="74.4009" x2="296.613" y2="69.3194" stroke="#444F69" stroke-width="4"/>
<line x1="236.539" y1="96.1688" x2="299.029" y2="88.1654" stroke="#444F69" stroke-width="2"/>
<line x1="237.555" y1="104.104" x2="300.044" y2="96.1006" stroke="#444F69" stroke-width="2"/>
<line x1="238.57" y1="112.039" x2="301.06" y2="104.036" stroke="#444F69" stroke-width="2"/>
<line x1="239.588" y1="119.974" x2="302.077" y2="111.971" stroke="#444F69" stroke-width="2"/>
<rect x="192.835" y="58.9257" width="79" height="104" rx="8.5" transform="rotate(20.1996 192.835 58.9257)" fill="white" stroke="#444F69" stroke-width="3"/>
<path d="M195.437 85.1594C195.861 84.0078 197.138 83.4177 198.29 83.8414L199.75 84.3788C200.902 84.8025 201.492 86.0795 201.068 87.2311L199.764 90.7769C199.562 91.3261 198.796 91.3569 198.551 90.8256C197.936 89.4936 196.357 88.9128 195.025 89.5282C194.494 89.7737 193.931 89.2544 194.133 88.7052L195.437 85.1594Z" fill="white" stroke="#444F69" stroke-width="2"/>
<circle cx="200.746" cy="79.4176" r="6" transform="rotate(20.1996 200.746 79.4176)" fill="white" stroke="#444F69" stroke-width="2"/>
<line x1="215.763" y1="84.9423" x2="253.303" y2="98.754" stroke="#444F69" stroke-width="4"/>
<line x1="212.999" y1="92.4502" x2="250.539" y2="106.262" stroke="#444F69" stroke-width="4"/>
<line x1="184.853" y1="102.34" x2="243.978" y2="124.093" stroke="#444F69" stroke-width="2"/>
<line x1="182.091" y1="109.848" x2="241.217" y2="131.601" stroke="#444F69" stroke-width="2"/>
<line x1="179.33" y1="117.356" x2="238.455" y2="139.109" stroke="#444F69" stroke-width="2"/>
<line x1="176.566" y1="124.864" x2="235.691" y2="146.617" stroke="#444F69" stroke-width="2"/>
<rect x="104.5" y="34.5" width="79" height="104" rx="8.5" fill="white" stroke="#444F69" stroke-width="3"/>
<path d="M116 58.2218C116 56.9947 116.995 56 118.222 56H119.778C121.005 56 122 56.9947 122 58.2218V62C122 62.5852 121.292 62.8783 120.879 62.4645C119.841 61.4269 118.159 61.4269 117.121 62.4645C116.708 62.8783 116 62.5852 116 62V58.2218Z" fill="white" stroke="#444F69" stroke-width="2"/>
<circle cx="119" cy="51" r="6" fill="white" stroke="#444F69" stroke-width="2"/>
<line x1="135" y1="51" x2="175" y2="51" stroke="#444F69" stroke-width="4"/>
<line x1="135" y1="59" x2="175" y2="59" stroke="#444F69" stroke-width="4"/>
<line x1="112" y1="78" x2="175" y2="78" stroke="#444F69" stroke-width="2"/>
<line x1="112" y1="86" x2="175" y2="86" stroke="#444F69" stroke-width="2"/>
<line x1="112" y1="94" x2="175" y2="94" stroke="#444F69" stroke-width="2"/>
<line x1="112" y1="102" x2="175" y2="102" stroke="#444F69" stroke-width="2"/>
</g>
</svg>
