<svg width="262" height="48" viewBox="0 0 262 48" fill="none" xmlns="http://www.w3.org/2000/svg">
<circle cx="63" cy="12.0002" r="11" fill="white" stroke="white" stroke-width="2"/>
<path d="M47 43.0002C47 35.2683 53.268 29.0002 61 29.0002H65C72.732 29.0002 79 35.2683 79 43.0002V47.0002H47V43.0002Z" fill="white" stroke="white" stroke-width="2"/>
<circle cx="17" cy="12.0002" r="11" fill="white" stroke="white" stroke-width="2"/>
<path d="M1 43.0002C1 35.2683 7.26801 29.0002 15 29.0002H19C26.732 29.0002 33 35.2683 33 43.0002V47.0002H1V43.0002Z" fill="white" stroke="white" stroke-width="2"/>
<circle cx="108" cy="12.0002" r="11" fill="white" stroke="white" stroke-width="2"/>
<path d="M92 43.0002C92 35.2683 98.268 29.0002 106 29.0002H110C117.732 29.0002 124 35.2683 124 43.0002V47.0002H92V43.0002Z" fill="white" stroke="white" stroke-width="2"/>
<circle cx="154" cy="12.0002" r="11" fill="white" stroke="white" stroke-width="2"/>
<path d="M138 43.0002C138 35.2683 144.268 29.0002 152 29.0002H156C163.732 29.0002 170 35.2683 170 43.0002V47.0002H138V43.0002Z" fill="white" stroke="white" stroke-width="2"/>
<circle cx="199" cy="12.0002" r="11" fill="white" stroke="white" stroke-width="2"/>
<path d="M183 43.0002C183 35.2683 189.268 29.0002 197 29.0002H201C208.732 29.0002 215 35.2683 215 43.0002V47.0002H183V43.0002Z" fill="white" stroke="white" stroke-width="2"/>
<circle cx="245" cy="12.0002" r="11" fill="white" stroke="white" stroke-width="2"/>
<path d="M229 43.0002C229 35.2683 235.268 29.0002 243 29.0002H247C254.732 29.0002 261 35.2683 261 43.0002V47.0002H229V43.0002Z" fill="white" stroke="white" stroke-width="2"/>
</svg>
