<svg width="28" height="28" viewBox="0 0 28 28" fill="none" xmlns="http://www.w3.org/2000/svg">
<g clip-path="url(#clip0)">
<path d="M28.0003 8.30371L14.6017 17.6104C14.2003 17.9308 13.719 17.9308 13.3986 17.6104L0 8.30371V21.9428C0 22.1036 0.160782 22.1834 0.32046 22.1834H27.6784C27.8392 22.1834 27.9989 22.1036 27.9989 21.9428V8.30371H28.0003Z" fill="#F7941D"/>
<path d="M0 6.53876L13.3986 15.8454C13.719 16.1659 14.2014 16.1659 14.6017 15.8454L28.0002 6.53876V6.13735C28.0002 5.97657 27.8395 5.81689 27.6798 5.81689H0.321832C0.16105 5.81689 0.001372 5.97768 0.001372 6.13735V6.53876H0Z" fill="#F7941D"/>
</g>
<defs>
<clipPath id="clip0">
<rect width="28" height="28" fill="white"/>
</clipPath>
</defs>
</svg>
