<svg width="31" height="31" viewBox="0 0 31 31" fill="none" xmlns="http://www.w3.org/2000/svg">
<g clip-path="url(#clip0)">
<path d="M30.9243 24.4443C30.8735 24.6623 30.7899 24.8718 30.6761 25.0643C29.7982 26.4993 28.7253 27.8071 27.489 28.9477C27.1196 29.2444 26.7309 29.5156 26.3265 29.7602L25.3965 29.8196C24.9472 29.7602 24.4883 29.7069 24.0475 29.627C22.0591 29.2189 20.1508 28.4863 18.3996 27.457C15.3965 25.7835 12.7083 23.6812 10.1325 21.4145C7.77238 19.3874 5.61457 17.1374 3.68668 14.6937C2.36313 12.9705 1.19821 11.1603 0.490888 9.08333C0.317725 8.57232 0.199051 8.04191 0.057384 7.53333L-0.00195312 6.58758C0.391592 5.41296 1.18476 4.5072 2.01909 3.63653C2.63909 2.99837 3.27726 2.39653 3.92875 1.79833C4.47367 1.29458 5.23051 1.08629 5.95587 1.24008C6.37121 1.30184 6.74541 1.52465 6.99729 1.86008C8.33054 3.62683 9.64804 5.40679 11.0273 7.13008C11.6073 7.82274 11.7405 8.78666 11.3688 9.61008C11.2017 10.0533 10.9813 10.4783 10.7803 10.9094C10.5441 11.4083 10.3092 11.9109 10.0513 12.4001C9.93867 12.5502 9.96288 12.7634 10.107 12.8832C11.037 13.835 11.9234 14.8304 12.897 15.7447C14.688 17.4884 16.6254 19.076 18.6878 20.488C18.8706 20.6491 19.1443 20.6491 19.3272 20.488C20.0804 19.977 20.8457 19.4805 21.6207 18.9973C22.1607 18.6159 22.8255 18.4512 23.4807 18.5384C23.6805 18.5711 23.8742 18.6377 24.051 18.737C26.1011 19.9043 28.1477 21.0789 30.1893 22.2583C30.8469 22.63 31.1532 23.56 30.9244 24.444L30.9243 24.4443Z" fill="#F7941D"/>
</g>
<defs>
<clipPath id="clip0">
<rect width="31" height="31" fill="white" transform="matrix(-1 0 0 1 31 0)"/>
</clipPath>
</defs>
</svg>
