<svg xmlns="http://www.w3.org/2000/svg" viewBox="0 0 548.71 114.97"><defs><style>.cls-1{fill:#384867;}.cls-2{fill:#f88d2b;}.cls-3{fill:#a65a2a;}</style></defs><title>Asset 1</title><g id="Layer_2" data-name="Layer 2"><g id="Layer_1-2" data-name="Layer 1"><path class="cls-1" d="M125.42,43.34a3.54,3.54,0,0,0-1.67.62,2.23,2.23,0,0,0-.72,1.38,15.87,15.87,0,0,0-.19,2.79v9.6c0,3.45-.47,6-1.41,7.68a6.32,6.32,0,0,1-2.68,2.48A11.22,11.22,0,0,1,108.26,67a6.54,6.54,0,0,1-2.14-3.39,23.12,23.12,0,0,1-.55-5.74V46.46a7.27,7.27,0,0,0-.19-2,1.27,1.27,0,0,0-.72-.84,6,6,0,0,0-1.67-.29v-.72c1.17.07,3,.11,5.37.11s4.21,0,5.47-.11v.72a6.42,6.42,0,0,0-1.81.29,1.25,1.25,0,0,0-.77.84,6.73,6.73,0,0,0-.21,2V60.12a11.47,11.47,0,0,0,1,5.6,3.92,3.92,0,0,0,3.7,1.8,5.17,5.17,0,0,0,4.86-2.45,14,14,0,0,0,1.41-6.94V48.56a14.81,14.81,0,0,0-.24-3.12,2.28,2.28,0,0,0-.93-1.47,5.25,5.25,0,0,0-2.17-.63v-.72c.87.07,2.11.11,3.72.11,1.28,0,2.28,0,3-.11v.72Z"/><path class="cls-1" d="M143.91,50.45a4,4,0,0,1,.83,1.78,14.18,14.18,0,0,1,.24,2.94v9.75a3.18,3.18,0,0,0,.5,2,2.2,2.2,0,0,0,1.7.56v.76c-2.29-.1-3.81-.14-4.54-.14s-2.18,0-4.48.14v-.76a1.71,1.71,0,0,0,1.45-.56,3.61,3.61,0,0,0,.41-2V53.65a4.4,4.4,0,0,0-.46-2.25,1.79,1.79,0,0,0-1.67-.76,3,3,0,0,0-2.41,1.21,4.54,4.54,0,0,0-1,3V64.91a3.72,3.72,0,0,0,.41,2,1.71,1.71,0,0,0,1.45.56v.76c-2.11-.1-3.54-.14-4.27-.14s-2.27,0-4.75.14v-.76A2.19,2.19,0,0,0,129,67a3.24,3.24,0,0,0,.48-2V53.5a4.72,4.72,0,0,0-.48-2.43,1.86,1.86,0,0,0-1.72-.76v-.76c.73.07,1.45.11,2.14.11a20.4,20.4,0,0,0,5-.51v3.26A5.67,5.67,0,0,1,140.13,49a4.58,4.58,0,0,1,3.78,1.41"/><path class="cls-1" d="M156.25,40.93a2.92,2.92,0,0,1,0,4.1,3.32,3.32,0,0,1-2.29.74,3.37,3.37,0,0,1-2.29-.74,2.92,2.92,0,0,1,0-4.1,3.91,3.91,0,0,1,4.58,0m.4,24a3.18,3.18,0,0,0,.5,2,2.2,2.2,0,0,0,1.7.56v.76c-2.29-.1-3.82-.15-4.58-.15s-2.31.05-4.78.15v-.76a2.15,2.15,0,0,0,1.72-.56,3.24,3.24,0,0,0,.48-2V53.49a4.72,4.72,0,0,0-.48-2.43,1.86,1.86,0,0,0-1.72-.76v-.76c.73.07,1.45.11,2.14.11a20.4,20.4,0,0,0,5-.51Z"/><path class="cls-1" d="M168.35,49.54h4.06v.72h-4.06V64.9a2.53,2.53,0,0,0,.36,1.54,1.39,1.39,0,0,0,1.15.45c1,0,1.77-.72,2.34-2.17l.59.32q-1.31,3.73-4.72,3.73a4.53,4.53,0,0,1-3.44-1.23,4,4,0,0,1-1-1.9,15.06,15.06,0,0,1-.26-3.14V50.25H160.5v-.72h2.89V44.75a10,10,0,0,0,5-1.16Z"/><path class="cls-1" d="M181,51.41a13.53,13.53,0,0,0-1,5h5.4a14.47,14.47,0,0,0-.53-4.73c-.4-1.24-1-1.87-1.81-1.87s-1.5.54-2,1.62m8,11.5.62.22a8.71,8.71,0,0,1-2.46,4,6.24,6.24,0,0,1-4.42,1.65,7.34,7.34,0,0,1-5.8-2.45q-2.14-2.44-2.15-7.23t2.3-7.49A7.83,7.83,0,0,1,183.26,49q6.47,0,6.47,8h-9.67c0,.36,0,.93,0,1.7a10.76,10.76,0,0,0,.64,4,5.14,5.14,0,0,0,1.65,2.32,3.73,3.73,0,0,0,2.19.72A5.12,5.12,0,0,0,189,62.91"/><path class="cls-1" d="M203.68,66.36a3.83,3.83,0,0,0,1-2.36V51.32a2.87,2.87,0,0,0-2.51-1.23c-1.22,0-2.16.74-2.82,2.21a16.22,16.22,0,0,0-1,6.6,17.17,17.17,0,0,0,.81,6.38c.56,1.31,1.37,2,2.43,2a2.81,2.81,0,0,0,2-.88m6.49.36a1.86,1.86,0,0,0,1.72.76v.76c-.71-.07-1.42-.11-2.14-.11a20.55,20.55,0,0,0-5,.51V65.52a4.42,4.42,0,0,1-4.47,3.26,6.18,6.18,0,0,1-5.15-2.48c-1.27-1.66-1.9-4.15-1.88-7.49a13.23,13.23,0,0,1,1-5.38,7,7,0,0,1,6.7-4.4,5,5,0,0,1,3.82,1.38V44.25a4.5,4.5,0,0,0-.5-2.43,1.87,1.87,0,0,0-1.7-.76V40.3c.73.07,1.45.11,2.13.11a21.06,21.06,0,0,0,5-.51V64.29a4.81,4.81,0,0,0,.49,2.43"/><path class="cls-1" d="M237.25,43.58a6.42,6.42,0,0,0-1.81.29,1.25,1.25,0,0,0-.77.84,6.73,6.73,0,0,0-.21,2V65.11a6.09,6.09,0,0,0,.17,1.68,1.06,1.06,0,0,0,.6.71,3.9,3.9,0,0,0,1.39.18h1.69a5,5,0,0,0,4-2.21,12.17,12.17,0,0,0,2.22-5.87h.79c-.07.82-.1,1.88-.1,3.19a55.86,55.86,0,0,0,.24,5.73q-2.34-.1-7.88-.11c-5,0-8.75,0-11.22.11V67.8a6,6,0,0,0,1.67-.29,1.21,1.21,0,0,0,.72-.83,7.27,7.27,0,0,0,.19-2v-18a7.27,7.27,0,0,0-.19-2,1.27,1.27,0,0,0-.72-.84,6,6,0,0,0-1.67-.29v-.72c1.17.07,3,.11,5.44.11s4.14,0,5.4-.11v.72Z"/><path class="cls-1" d="M265.27,64.57a4.59,4.59,0,0,0,.5,2.43,1.87,1.87,0,0,0,1.7.76v.76c-.71-.07-1.42-.11-2.14-.11a20.91,20.91,0,0,0-5,.51V65.66A5.62,5.62,0,0,1,254.77,69,4.6,4.6,0,0,1,251,67.62a4.42,4.42,0,0,1-.81-1.79,13.43,13.43,0,0,1-.26-2.92V53.74a4.59,4.59,0,0,0-.5-2.43,1.87,1.87,0,0,0-1.7-.76v-.76c.71.07,1.42.11,2.14.11a20.91,20.91,0,0,0,5-.51v15a4.68,4.68,0,0,0,.43,2.28,1.71,1.71,0,0,0,1.64.76,3,3,0,0,0,2.36-1.22,4.63,4.63,0,0,0,1-3v-9.5a4.59,4.59,0,0,0-.5-2.43,1.87,1.87,0,0,0-1.7-.76v-.76c.73.07,1.45.11,2.14.11a20.91,20.91,0,0,0,5-.51v15.2Z"/><path class="cls-1" d="M277,49.78h4.06v.72H277V65.14a2.53,2.53,0,0,0,.36,1.54,1.39,1.39,0,0,0,1.15.45c1,0,1.77-.72,2.34-2.17l.59.32Q280.15,69,276.73,69a4.53,4.53,0,0,1-3.44-1.23,4,4,0,0,1-1-1.9,15.06,15.06,0,0,1-.26-3.14V50.49h-2.89v-.72h2.89V45a10,10,0,0,0,5-1.16v6Z"/><path class="cls-1" d="M290.16,52.64a5.63,5.63,0,0,1,5.61-3.37,4.55,4.55,0,0,1,3.79,1.41,4.2,4.2,0,0,1,.84,1.79,13.43,13.43,0,0,1,.26,2.92v9.75a3.26,3.26,0,0,0,.48,2,2.19,2.19,0,0,0,1.72.56v.76c-2.39-.1-3.9-.14-4.54-.14s-2.27,0-4.48.14v-.76a1.71,1.71,0,0,0,1.45-.56,3.61,3.61,0,0,0,.41-2V53.87a4.4,4.4,0,0,0-.46-2.25,1.79,1.79,0,0,0-1.67-.76A3,3,0,0,0,291.14,52a4.54,4.54,0,0,0-1,3V65.14a3.72,3.72,0,0,0,.41,2,1.71,1.71,0,0,0,1.45.56v.76c-2.2-.1-3.63-.14-4.27-.14s-2.37,0-4.75.14v-.76a2.2,2.2,0,0,0,1.7-.56,3.16,3.16,0,0,0,.5-2V44.52a4.59,4.59,0,0,0-.5-2.43,1.87,1.87,0,0,0-1.7-.76v-.75c.73.07,1.45.11,2.14.11a20.91,20.91,0,0,0,5-.51V52.64Z"/><path class="cls-1" d="M311.76,51.65a13.53,13.53,0,0,0-1,5h5.4a14.47,14.47,0,0,0-.53-4.73c-.4-1.25-1-1.87-1.81-1.87s-1.5.54-2,1.62m8,11.5.62.22a8.71,8.71,0,0,1-2.46,4A6.24,6.24,0,0,1,313.54,69a7.34,7.34,0,0,1-5.8-2.45q-2.14-2.44-2.15-7.23t2.3-7.49A7.83,7.83,0,0,1,314,49.26q6.47,0,6.47,8.05h-9.67c0,.36,0,.93,0,1.7a10.76,10.76,0,0,0,.64,4,5.14,5.14,0,0,0,1.65,2.32,3.73,3.73,0,0,0,2.19.72,5.12,5.12,0,0,0,4.54-2.89"/><path class="cls-1" d="M337.49,50.25a3.62,3.62,0,0,1,.79,2.36,3.23,3.23,0,0,1-.74,2.19,2.47,2.47,0,0,1-2,.85,2.65,2.65,0,0,1-1.86-.63,2.19,2.19,0,0,1-.69-1.69,3.34,3.34,0,0,1,1.51-2.83,1.93,1.93,0,0,0-.41,0,1.67,1.67,0,0,0-.55.07,3.3,3.3,0,0,0-2.22,1.67,5.49,5.49,0,0,0-.91,3v9.6a2.94,2.94,0,0,0,.77,2.32,3.77,3.77,0,0,0,2.46.65v.76a5.72,5.72,0,0,1-.79,0c-2.34-.07-3.9-.11-4.68-.11-.62,0-2,0-4.23.11a6.12,6.12,0,0,1-.69,0v-.76a2.19,2.19,0,0,0,1.72-.56,3.24,3.24,0,0,0,.48-2.05V53.71a4.72,4.72,0,0,0-.48-2.43,1.86,1.86,0,0,0-1.72-.76v-.76c.73.07,1.45.11,2.14.11a20.4,20.4,0,0,0,5-.51v3.37a6.18,6.18,0,0,1,1.89-2.52,4.46,4.46,0,0,1,2.79-1,2.92,2.92,0,0,1,2.35,1"/><path class="cls-1" d="M350,65V57.54a5.41,5.41,0,0,1-1.76,1.6,8.41,8.41,0,0,0-2,1.81,4.25,4.25,0,0,0-.69,2.61,3.45,3.45,0,0,0,.58,2.19,1.92,1.92,0,0,0,1.55.71A2.87,2.87,0,0,0,350,65m-8.28,2.6a4.53,4.53,0,0,1-1.08-3.15,4.33,4.33,0,0,1,.81-2.7,5.64,5.64,0,0,1,2-1.65,26.82,26.82,0,0,1,2.94-1.23,15.2,15.2,0,0,0,2.77-1.25,1.73,1.73,0,0,0,.88-1.54V53.22a3.77,3.77,0,0,0-.67-2.37A2.48,2.48,0,0,0,347.2,50a3.37,3.37,0,0,0-2.51.87,3.26,3.26,0,0,1,1.5,1.09,2.82,2.82,0,0,1,.53,1.7,2.53,2.53,0,0,1-.79,2,2.77,2.77,0,0,1-1.93.72,2.29,2.29,0,0,1-1.86-.8,3,3,0,0,1-.65-2,3,3,0,0,1,.47-1.72,4.73,4.73,0,0,1,1.43-1.32,7.93,7.93,0,0,1,2.29-.91,12.59,12.59,0,0,1,3-.33,10.62,10.62,0,0,1,2.93.36,4.49,4.49,0,0,1,2.06,1.23,4.2,4.2,0,0,1,1,2,14.57,14.57,0,0,1,.26,3.15v9.86a3.53,3.53,0,0,0,.15,1.23.59.59,0,0,0,.6.36,2.11,2.11,0,0,0,1.24-.62l.34.62a5.59,5.59,0,0,1-3.79,1.34,3.57,3.57,0,0,1-2.65-.8,3.1,3.1,0,0,1-.79-2.14A5.52,5.52,0,0,1,345,68.76a4.18,4.18,0,0,1-3.3-1.19"/><path class="cls-1" d="M375.87,50.69a4,4,0,0,1,.83,1.78,14.18,14.18,0,0,1,.24,2.94v9.75a3.18,3.18,0,0,0,.5,2,2.2,2.2,0,0,0,1.7.56v.76c-2.29-.1-3.81-.14-4.54-.14s-2.18,0-4.48.14v-.76a1.71,1.71,0,0,0,1.45-.56,3.61,3.61,0,0,0,.41-2V53.89a4.4,4.4,0,0,0-.46-2.25,1.79,1.79,0,0,0-1.67-.76,3,3,0,0,0-2.41,1.21,4.54,4.54,0,0,0-1,3V65.15a3.72,3.72,0,0,0,.41,2,1.71,1.71,0,0,0,1.45.56v.76c-2.11-.1-3.54-.14-4.27-.14s-2.27.05-4.75.14v-.76A2.19,2.19,0,0,0,361,67.2a3.24,3.24,0,0,0,.48-2V53.74a4.72,4.72,0,0,0-.48-2.43,1.87,1.87,0,0,0-1.72-.76v-.76c.73.07,1.45.11,2.14.11a20.4,20.4,0,0,0,5-.51v3.26a5.67,5.67,0,0,1,5.65-3.37,4.58,4.58,0,0,1,3.78,1.41"/><path class="cls-1" d="M402.17,42.49a10.49,10.49,0,0,1,2.17,1c.25.14.48.27.67.36a1.12,1.12,0,0,0,.5.14.53.53,0,0,0,.48-.38,4.38,4.38,0,0,0,.27-1.21h.79c-.12,1.62-.17,4.37-.17,8.26h-.79a12.35,12.35,0,0,0-.84-3.73,7.17,7.17,0,0,0-2-2.88,4.47,4.47,0,0,0-3-1.11,3.81,3.81,0,0,0-2.74,1,3.55,3.55,0,0,0-1.05,2.7A4.46,4.46,0,0,0,397,48.9a6.09,6.09,0,0,0,1.44,1.72c.62.52,1.57,1.23,2.86,2.12l1.1.8a34.17,34.17,0,0,1,3.2,2.46,8.72,8.72,0,0,1,1.91,2.44,6.85,6.85,0,0,1,.74,3.24,6.5,6.5,0,0,1-1.14,3.9A7,7,0,0,1,404,68a11.34,11.34,0,0,1-4.32.8,12,12,0,0,1-3.2-.36,10.21,10.21,0,0,1-2.34-1,2.38,2.38,0,0,0-1.17-.51.53.53,0,0,0-.48.38,4.32,4.32,0,0,0-.28,1.21h-.79q.13-2.28.14-9.78h.79a14.63,14.63,0,0,0,1.72,6.58,4.91,4.91,0,0,0,4.54,2.52,4.48,4.48,0,0,0,3.06-1,3.78,3.78,0,0,0,1.2-3,5.17,5.17,0,0,0-1.24-3.48A20.22,20.22,0,0,0,397.71,57c-1.38-.94-2.48-1.76-3.31-2.46a8.84,8.84,0,0,1-2-2.48,6.71,6.71,0,0,1-.79-3.32,6.06,6.06,0,0,1,3.86-5.91,10,10,0,0,1,3.85-.72,9.23,9.23,0,0,1,2.88.36"/><path class="cls-1" d="M418.13,51.39a13.53,13.53,0,0,0-1,5h5.4a14.47,14.47,0,0,0-.53-4.73c-.4-1.25-1-1.87-1.81-1.87s-1.5.55-2,1.62m8,11.51.62.22a8.71,8.71,0,0,1-2.46,4,6.24,6.24,0,0,1-4.42,1.65,7.34,7.34,0,0,1-5.8-2.45Q412,63.88,412,59.09t2.3-7.49A7.83,7.83,0,0,1,420.39,49q6.47,0,6.47,8.05h-9.67c0,.36,0,.93,0,1.7a10.76,10.76,0,0,0,.64,4,5.14,5.14,0,0,0,1.65,2.32,3.73,3.73,0,0,0,2.19.72,5.14,5.14,0,0,0,4.54-2.89"/><path class="cls-1" d="M457.85,66.94a2.2,2.2,0,0,0,1.7.56v.76c-2.29-.1-3.81-.14-4.54-.14s-2.07,0-4.27.14V67.5A1.44,1.44,0,0,0,452,67a4.08,4.08,0,0,0,.36-2.07V53.62a4.56,4.56,0,0,0-.43-2.26,1.72,1.72,0,0,0-1.64-.74,2.82,2.82,0,0,0-2.22,1.12A5,5,0,0,0,447,54.49v10.4a3.53,3.53,0,0,0,.43,2,1.89,1.89,0,0,0,1.57.56v.76c-2.2-.1-3.65-.14-4.34-.14s-2.07,0-4.27.14V67.5a1.42,1.42,0,0,0,1.29-.56,4.1,4.1,0,0,0,.36-2V53.62a5.17,5.17,0,0,0-.38-2.26,1.48,1.48,0,0,0-1.48-.74,3,3,0,0,0-2.36,1.21,4.63,4.63,0,0,0-1,3V64.89a4.12,4.12,0,0,0,.36,2,1.42,1.42,0,0,0,1.29.56v.76c-2-.1-3.37-.14-4.06-.14s-2.27,0-4.75.14V67.5a2.19,2.19,0,0,0,1.72-.56,3.24,3.24,0,0,0,.48-2V53.48a4.72,4.72,0,0,0-.48-2.43,1.86,1.86,0,0,0-1.72-.76v-.76c.73.07,1.45.11,2.14.11a20.4,20.4,0,0,0,5-.51v3.26A5.39,5.39,0,0,1,442.16,49,4.67,4.67,0,0,1,446,50.43a4,4,0,0,1,.86,2.17,5.84,5.84,0,0,1,2.34-2.77,6.78,6.78,0,0,1,3.37-.82,4.67,4.67,0,0,1,3.79,1.41,4,4,0,0,1,.79,1.78,14.58,14.58,0,0,1,.24,2.94v9.75a3.23,3.23,0,0,0,.51,2"/><path class="cls-1" d="M468.63,40.92a2.92,2.92,0,0,1,0,4.1,3.32,3.32,0,0,1-2.29.74,3.37,3.37,0,0,1-2.29-.74,2.92,2.92,0,0,1,0-4.1,3.91,3.91,0,0,1,4.58,0m.39,24a3.18,3.18,0,0,0,.5,2,2.2,2.2,0,0,0,1.7.56v.76c-2.29-.1-3.82-.15-4.58-.15s-2.31,0-4.78.15V67.5a2.15,2.15,0,0,0,1.72-.56,3.24,3.24,0,0,0,.48-2V53.47a4.72,4.72,0,0,0-.48-2.43,1.86,1.86,0,0,0-1.72-.76v-.76c.73.07,1.45.11,2.14.11a20.4,20.4,0,0,0,5-.51Z"/><path class="cls-1" d="M490.33,50.43a4,4,0,0,1,.83,1.78,14.18,14.18,0,0,1,.24,2.94V64.9a3.18,3.18,0,0,0,.5,2,2.2,2.2,0,0,0,1.7.56v.76c-2.29-.1-3.81-.14-4.54-.14s-2.18.05-4.48.14v-.76A1.71,1.71,0,0,0,486,67a3.61,3.61,0,0,0,.41-2V53.63a4.4,4.4,0,0,0-.46-2.25,1.79,1.79,0,0,0-1.67-.76,3,3,0,0,0-2.41,1.21,4.54,4.54,0,0,0-1,3V64.89a3.72,3.72,0,0,0,.41,2,1.71,1.71,0,0,0,1.45.56v.76c-2.11-.1-3.54-.14-4.27-.14s-2.27,0-4.75.14V67.5a2.19,2.19,0,0,0,1.72-.56,3.24,3.24,0,0,0,.48-2V53.48a4.72,4.72,0,0,0-.48-2.43,1.87,1.87,0,0,0-1.72-.76v-.76c.73.07,1.45.11,2.14.11a20.4,20.4,0,0,0,5-.51v3.26A5.67,5.67,0,0,1,486.55,49a4.66,4.66,0,0,1,3.78,1.41"/><path class="cls-1" d="M505.44,64.71V57.28a5.41,5.41,0,0,1-1.76,1.6,8.41,8.41,0,0,0-2,1.81A4.25,4.25,0,0,0,501,63.3a3.39,3.39,0,0,0,.59,2.19,1.92,1.92,0,0,0,1.55.71,2.85,2.85,0,0,0,2.34-1.49m-8.28,2.61a4.53,4.53,0,0,1-1.08-3.15,4.33,4.33,0,0,1,.81-2.7,5.64,5.64,0,0,1,2-1.65,26.82,26.82,0,0,1,2.94-1.23,15.2,15.2,0,0,0,2.77-1.25,1.73,1.73,0,0,0,.88-1.54V53a3.77,3.77,0,0,0-.67-2.37,2.48,2.48,0,0,0-2.08-.85,3.37,3.37,0,0,0-2.51.87,3.26,3.26,0,0,1,1.5,1.09,2.82,2.82,0,0,1,.53,1.7,2.53,2.53,0,0,1-.79,2,2.77,2.77,0,0,1-1.93.72,2.29,2.29,0,0,1-1.86-.8,3,3,0,0,1-.65-2,3,3,0,0,1,.47-1.72,4.73,4.73,0,0,1,1.43-1.32,7.93,7.93,0,0,1,2.29-.91,12.59,12.59,0,0,1,3-.33,10.62,10.62,0,0,1,2.93.36,4.49,4.49,0,0,1,2.06,1.23,4.2,4.2,0,0,1,1,2,15.24,15.24,0,0,1,.26,3.15v9.86a3.53,3.53,0,0,0,.15,1.23.59.59,0,0,0,.6.36,2.11,2.11,0,0,0,1.24-.62l.34.62A5.59,5.59,0,0,1,509,68.51a3.57,3.57,0,0,1-2.65-.8,3.1,3.1,0,0,1-.79-2.14,5.52,5.52,0,0,1-5.06,2.94,4.18,4.18,0,0,1-3.3-1.19"/><path class="cls-1" d="M529,50a3.62,3.62,0,0,1,.79,2.36,3.23,3.23,0,0,1-.74,2.19,2.44,2.44,0,0,1-2,.85,2.65,2.65,0,0,1-1.86-.63,2.19,2.19,0,0,1-.69-1.69A3.34,3.34,0,0,1,526,50.25a1.93,1.93,0,0,0-.41,0,1.67,1.67,0,0,0-.55.07A3.3,3.3,0,0,0,522.83,52a5.49,5.49,0,0,0-.91,3v9.6a2.91,2.91,0,0,0,.78,2.32,3.77,3.77,0,0,0,2.46.65v.76a5.72,5.72,0,0,1-.79,0c-2.34-.07-3.9-.11-4.68-.11-.62,0-2,0-4.23.11a6.12,6.12,0,0,1-.69,0v-.76a2.19,2.19,0,0,0,1.72-.56,3.24,3.24,0,0,0,.48-2.05V53.46a4.72,4.72,0,0,0-.48-2.43,1.86,1.86,0,0,0-1.72-.76v-.76c.73.07,1.45.11,2.14.11a20.4,20.4,0,0,0,5-.51v3.37A6.18,6.18,0,0,1,523.82,50a4.46,4.46,0,0,1,2.79-1A2.83,2.83,0,0,1,529,50"/><path class="cls-1" d="M548.71,49.53v.72a2.62,2.62,0,0,0-1.29.92,7.39,7.39,0,0,0-1.08,2.19l-6.16,18.23a6.08,6.08,0,0,1-1.52,2.58,4.34,4.34,0,0,1-3,.9,4.75,4.75,0,0,1-2.6-.74,2.42,2.42,0,0,1-1.15-2.16,2.24,2.24,0,0,1,.76-1.79,2.9,2.9,0,0,1,2-.67,2.76,2.76,0,0,1,1.87.6,2.09,2.09,0,0,1,.71,1.68,2.38,2.38,0,0,1-.45,1.4,2.78,2.78,0,0,1-1.27,1,6.56,6.56,0,0,0,.79,0c1.42,0,2.47-1,3.13-2.86l.55-1.74-7.3-17.47a4.27,4.27,0,0,0-1.07-1.63,1.7,1.7,0,0,0-1.07-.4v-.76c1.51.14,3.09.22,4.72.22,1.35,0,3-.07,4.79-.22v.76a6.53,6.53,0,0,0-1.64.16.77.77,0,0,0-.53.85,2.94,2.94,0,0,0,.24,1L542.35,63l2.38-7a10,10,0,0,0,.55-2.9,2.57,2.57,0,0,0-2.55-2.9v-.72c1.08.07,2.19.11,3.34.11s2,0,2.64-.11"/><path class="cls-1" d="M26.78,34.08V30.34H17.54V8.92l13.64,6.93V70c0,14.32,11.13,26,24.74,26S80.66,84.34,80.66,70v2.54c0,18.27-14.2,33.22-31.56,33.22s-31.56-15-31.56-33.22V34.08Z"/><path class="cls-2" d="M55.92,92.68c11.87,0,21.52-10.16,21.52-22.66h0V24L59.1,33.34V73.6c0,8.46-6.52,15.33-14.56,15.33l-.5,0a20.72,20.72,0,0,0,11.88,3.77"/><path class="cls-1" d="M49.1,109.17c-.68,0-1.36,0-2-.07C28.77,108.42,14,92.46,14,73V34.08H4.75V30.34H14V7.11L0,0V72.51C0,95.86,18.15,115,40.33,115a39.07,39.07,0,0,0,27.8-11.8,33.28,33.28,0,0,1-19,6"/><path class="cls-3" d="M77.44,44.88c0,13.46-12.69,44-33.41,44a20.6,20.6,0,0,0,11.88,3.78C67.78,92.67,77.43,82.5,77.43,70h0V44.88Z"/><path class="cls-1" d="M119.23,89.89v10.82a5.45,5.45,0,0,1-.71,2.79,4.6,4.6,0,0,1-2,1.82,6.49,6.49,0,0,1-2.91.64,5.74,5.74,0,0,1-4-1.37,5,5,0,0,1-1.56-3.78V89.89h1.33v10.72a4.15,4.15,0,0,0,1.14,3.11,4.9,4.9,0,0,0,6.2,0,4.11,4.11,0,0,0,1.14-3.09V89.89Z"/><path class="cls-1" d="M137,105.73h-1.34l-9.11-13.56v13.56h-1.35V89.89h1.35l9.12,13.57V89.89H137Z"/><path class="cls-1" d="M144.85,105.73h-1.34V89.89h1.34Z"/><path class="cls-1" d="M160.08,98.32h-7.39v7.41h-1.34V89.89h9.82V91h-8.48v6.17h7.39Z"/><path class="cls-1" d="M170.77,98.53l4.84-8.64h1.54l-5.72,9.88v6h-1.34v-6l-5.71-9.88H166Z"/><path class="cls-1" d="M183.32,105.73H182V89.89h1.34Z"/><path class="cls-1" d="M201.62,105.73h-1.34l-9.11-13.56v13.56h-1.35V89.89h1.35l9.12,13.57V89.89h1.33Z"/><path class="cls-1" d="M219.32,103.85a4.47,4.47,0,0,1-2.18,1.55,9.44,9.44,0,0,1-3.32.55,6.24,6.24,0,0,1-3.31-.89,5.91,5.91,0,0,1-2.24-2.52,8.6,8.6,0,0,1-.81-3.74v-2a7.62,7.62,0,0,1,1.67-5.21,5.64,5.64,0,0,1,4.47-1.91,6,6,0,0,1,3.94,1.25,5.17,5.17,0,0,1,1.77,3.43H218a4.12,4.12,0,0,0-1.42-2.65,4.56,4.56,0,0,0-2.94-.9,4.33,4.33,0,0,0-3.52,1.58,6.8,6.8,0,0,0-1.29,4.45v1.87a8,8,0,0,0,.61,3.2,4.89,4.89,0,0,0,1.76,2.15,4.67,4.67,0,0,0,2.64.76,7.43,7.43,0,0,0,3-.54,3.18,3.18,0,0,0,1.2-.84V99.35h-4.26V98.22h5.59v5.63Z"/><path class="cls-1" d="M224.77,108.69l-.77-.57a4.73,4.73,0,0,0,1-2.75v-1.69h1.27V105A4.71,4.71,0,0,1,224.77,108.69Z"/><path class="cls-1" d="M240.79,104.6h7.82v1.13h-9.17V89.89h1.35Z"/><path class="cls-1" d="M262.16,98.13h-7.41v6.46h8.52v1.13h-9.86V89.88h9.81V91h-8.47v6h7.41Z"/><path class="cls-1" d="M276.87,101.28h-7.19l-1.63,4.45h-1.4l6-15.84h1.27l6,15.84h-1.39Zm-6.77-1.13h6.36l-3.18-8.63Z"/><path class="cls-1" d="M290.37,99.12h-4.6v6.61h-1.35V89.89h5.15a5.87,5.87,0,0,1,4,1.23,4.69,4.69,0,0,1,.54,6.12,4.59,4.59,0,0,1-2.39,1.61l4,6.75v.14h-1.43ZM285.76,98h4.1a3.8,3.8,0,0,0,2.71-1,3.62,3.62,0,0,0-.05-5.09,4.46,4.46,0,0,0-3-.93h-3.78v7Z"/><path class="cls-1" d="M312.62,105.73h-1.34l-9.11-13.56v13.56h-1.35V89.89h1.35l9.12,13.57V89.89h1.33Z"/><path class="cls-1" d="M320.51,105.73h-1.34V89.89h1.34Z"/><path class="cls-1" d="M338.81,105.73h-1.34l-9.11-13.56v13.56H327V89.89h1.35l9.12,13.57V89.89h1.33Z"/><path class="cls-1" d="M356.5,103.85a4.47,4.47,0,0,1-2.18,1.55A9.44,9.44,0,0,1,351,106a6.24,6.24,0,0,1-3.31-.89,5.91,5.91,0,0,1-2.24-2.52,8.46,8.46,0,0,1-.8-3.74v-2a7.62,7.62,0,0,1,1.67-5.21,5.64,5.64,0,0,1,4.47-1.91,6,6,0,0,1,3.94,1.25,5.17,5.17,0,0,1,1.77,3.43h-1.34a4.12,4.12,0,0,0-1.42-2.65,4.56,4.56,0,0,0-2.94-.9,4.3,4.3,0,0,0-3.51,1.58A6.86,6.86,0,0,0,346,96.84v1.87a7.84,7.84,0,0,0,.61,3.2,4.89,4.89,0,0,0,1.76,2.15,4.67,4.67,0,0,0,2.64.76,7.43,7.43,0,0,0,3-.54,3.18,3.18,0,0,0,1.2-.84V99.35h-4.25V98.22h5.59v5.63Z"/><path class="cls-1" d="M362,108.69l-.77-.57a4.73,4.73,0,0,0,1-2.75v-1.69h1.27V105A4.68,4.68,0,0,1,362,108.69Z"/><path class="cls-1" d="M385.59,101.83a2.57,2.57,0,0,0-.92-2.08,9.87,9.87,0,0,0-3.38-1.46,11.63,11.63,0,0,1-3.59-1.51,3.57,3.57,0,0,1-1.61-3,3.53,3.53,0,0,1,1.5-3,6.14,6.14,0,0,1,3.83-1.14,6.28,6.28,0,0,1,2.82.61,4.64,4.64,0,0,1,1.93,1.7,4.44,4.44,0,0,1,.69,2.43h-1.35a3.31,3.31,0,0,0-1.11-2.61,4.35,4.35,0,0,0-3-1,4.73,4.73,0,0,0-2.9.81,2.53,2.53,0,0,0-1.08,2.12,2.38,2.38,0,0,0,1,2,9,9,0,0,0,3.1,1.35,14.45,14.45,0,0,1,3.23,1.21,4.65,4.65,0,0,1,1.65,1.5,3.76,3.76,0,0,1,.56,2.06,3.56,3.56,0,0,1-1.5,3,6.4,6.4,0,0,1-3.94,1.13,7.68,7.68,0,0,1-3.07-.6,4.69,4.69,0,0,1-2.12-1.68,4.34,4.34,0,0,1-.72-2.47h1.34a3.15,3.15,0,0,0,1.25,2.64,5.25,5.25,0,0,0,3.33,1,4.91,4.91,0,0,0,3-.82A2.52,2.52,0,0,0,385.59,101.83Z"/><path class="cls-1" d="M400.78,98.13h-7.41v6.46h8.52v1.13H392V89.88h9.81V91h-8.47v6h7.41Z"/><path class="cls-1" d="M412.86,99.12h-4.6v6.61h-1.35V89.89h5.15a5.87,5.87,0,0,1,4,1.23,4.69,4.69,0,0,1,.54,6.12,4.59,4.59,0,0,1-2.39,1.61l4,6.75v.14H416.7ZM408.26,98h4.1a3.8,3.8,0,0,0,2.71-1,3.62,3.62,0,0,0-.05-5.09,4.46,4.46,0,0,0-3-.93h-3.78v7Z"/><path class="cls-1" d="M427.87,103.77l.09.34.1-.34,5-13.89h1.47l-5.9,15.84h-1.28l-5.9-15.84h1.46Z"/><path class="cls-1" d="M440.7,105.73h-1.34V89.89h1.34Z"/><path class="cls-1" d="M459,105.73h-1.34l-9.11-13.56v13.56H447.2V89.89h1.35l9.12,13.57V89.89H459Z"/><path class="cls-1" d="M476.69,103.85a4.47,4.47,0,0,1-2.18,1.55,9.44,9.44,0,0,1-3.32.55,6.24,6.24,0,0,1-3.31-.89,5.91,5.91,0,0,1-2.24-2.52,8.46,8.46,0,0,1-.8-3.74v-2a7.62,7.62,0,0,1,1.67-5.21A5.64,5.64,0,0,1,471,89.68a6,6,0,0,1,3.94,1.25,5.17,5.17,0,0,1,1.77,3.43h-1.34a4.12,4.12,0,0,0-1.42-2.65,4.56,4.56,0,0,0-2.94-.9,4.3,4.3,0,0,0-3.51,1.58,6.86,6.86,0,0,0-1.29,4.45v1.87a7.84,7.84,0,0,0,.61,3.2,4.89,4.89,0,0,0,1.76,2.15,4.67,4.67,0,0,0,2.64.76,7.43,7.43,0,0,0,3-.54,3.18,3.18,0,0,0,1.2-.84V99.35h-4.25V98.22h5.59v5.63Z"/></g></g></svg>