<svg xmlns="http://www.w3.org/2000/svg" viewBox="0 0 662.15 139.53"><defs><style>.cls-1{fill:#384867;}.cls-2{fill:#f88d2b;}.cls-3{fill:#a65a2a;}</style></defs><title>Asset 1</title><g id="Layer_2" data-name="Layer 2"><g id="Layer_1-2" data-name="Layer 1"><path class="cls-1" d="M148.44,52.6a4.25,4.25,0,0,0-2,.75,2.77,2.77,0,0,0-.88,1.67,18.81,18.81,0,0,0-.23,3.39V70.07q0,6.29-1.71,9.32a7.68,7.68,0,0,1-3.26,3,11.45,11.45,0,0,1-5.22,1.08q-4.85,0-7.52-2.2A8,8,0,0,1,125,77.17a28,28,0,0,1-.67-7V56.39A9.24,9.24,0,0,0,124.1,54a1.5,1.5,0,0,0-.88-1,6.86,6.86,0,0,0-2-.35v-.88q2.13.14,6.52.13t6.64-.13v.88a8.16,8.16,0,0,0-2.19.35,1.55,1.55,0,0,0-.94,1,8.23,8.23,0,0,0-.25,2.42V73q0,4.62,1.27,6.8T136.73,82q4.19,0,5.89-3t1.71-8.42V59a18.17,18.17,0,0,0-.29-3.78,2.77,2.77,0,0,0-1.13-1.78,6.49,6.49,0,0,0-2.63-.77v-.88c1.06.09,2.56.13,4.51.13,1.56,0,2.77,0,3.63-.13v.86Z"/><path class="cls-1" d="M170.88,61.22a4.88,4.88,0,0,1,1,2.15,17.57,17.57,0,0,1,.29,3.56V78.76a3.8,3.8,0,0,0,.61,2.49,2.63,2.63,0,0,0,2.07.68v.92c-2.79-.12-4.62-.18-5.52-.18s-2.65.06-5.43.18v-.92a2,2,0,0,0,1.75-.68,4.46,4.46,0,0,0,.5-2.49V65.08a5.4,5.4,0,0,0-.56-2.73,2.19,2.19,0,0,0-2-.92,3.65,3.65,0,0,0-2.92,1.47,5.51,5.51,0,0,0-1.21,3.63V78.76a4.5,4.5,0,0,0,.5,2.49,2,2,0,0,0,1.75.68v.92c-2.56-.12-4.29-.18-5.18-.18s-2.76.06-5.76.18v-.92a2.67,2.67,0,0,0,2.09-.68,3.92,3.92,0,0,0,.59-2.49V64.9a5.7,5.7,0,0,0-.59-3,2.27,2.27,0,0,0-2.09-.92v-.92a25.66,25.66,0,0,0,2.59.13,24.51,24.51,0,0,0,6.1-.62v4c1.25-2.73,3.54-4.09,6.85-4.09q3.18,0,4.6,1.73"/><path class="cls-1" d="M185.86,49.67a3.54,3.54,0,0,1,0,5,4.74,4.74,0,0,1-5.56,0,3.54,3.54,0,0,1,0-5,4.06,4.06,0,0,1,2.78-.9,4.13,4.13,0,0,1,2.78.9m.47,29.1a3.75,3.75,0,0,0,.61,2.48,2.63,2.63,0,0,0,2.07.68v.92c-2.79-.12-4.64-.18-5.56-.18s-2.8.06-5.81.18v-.92a2.67,2.67,0,0,0,2.09-.68,3.91,3.91,0,0,0,.59-2.48V64.92a5.6,5.6,0,0,0-.59-3,2.27,2.27,0,0,0-2.09-.92v-.92a25.66,25.66,0,0,0,2.59.13,24.51,24.51,0,0,0,6.1-.62V78.77Z"/><path class="cls-1" d="M200.54,60.12h4.93V61h-4.93V78.77a3.07,3.07,0,0,0,.44,1.87,1.67,1.67,0,0,0,1.4.55c1.2,0,2.14-.88,2.84-2.64l.71.39q-1.59,4.53-5.72,4.53A5.49,5.49,0,0,1,196,82a4.82,4.82,0,0,1-1.19-2.31,18,18,0,0,1-.31-3.8V61H191v-.88h3.51V54.3a12.26,12.26,0,0,0,6-1.41v7.23Z"/><path class="cls-1" d="M215.89,62.39a16.14,16.14,0,0,0-1.23,6h6.56a17.67,17.67,0,0,0-.65-5.74c-.49-1.51-1.22-2.26-2.19-2.26s-1.84.64-2.49,2m9.75,14,.75.26a10.5,10.5,0,0,1-3,4.86,7.58,7.58,0,0,1-5.37,2,8.9,8.9,0,0,1-7-3q-2.61-3-2.61-8.77t2.8-9.08a9.49,9.49,0,0,1,7.44-3.14q7.86,0,7.85,9.77H214.73c0,.44,0,1.13,0,2.07a13.23,13.23,0,0,0,.77,4.84,6.15,6.15,0,0,0,2,2.82,4.46,4.46,0,0,0,2.65.88c2.29,0,4.13-1.19,5.52-3.54"/><path class="cls-1" d="M243.42,80.53a4.63,4.63,0,0,0,1.27-2.86V62.28a3.48,3.48,0,0,0-3.05-1.5q-2.22,0-3.43,2.68t-1.17,8q0,5.37,1,7.74c.68,1.58,1.66,2.38,2.95,2.38a3.43,3.43,0,0,0,2.45-1.06m7.88.44a2.27,2.27,0,0,0,2.09.92v.92a28.85,28.85,0,0,0-8.69.49V79.52a5.37,5.37,0,0,1-5.43,4,7.48,7.48,0,0,1-6.25-3c-1.55-2-2.3-5-2.28-9.08a16,16,0,0,1,1.19-6.53,8.48,8.48,0,0,1,8.12-5.34,6.13,6.13,0,0,1,4.64,1.67V53.71a5.48,5.48,0,0,0-.61-3,2.27,2.27,0,0,0-2.07-.93v-.92a25.66,25.66,0,0,0,2.59.13,25.12,25.12,0,0,0,6.1-.62V78a5.68,5.68,0,0,0,.6,3"/><path class="cls-1" d="M284.16,52.89a8.24,8.24,0,0,0-2.19.35,1.55,1.55,0,0,0-.94,1,8.23,8.23,0,0,0-.25,2.42V79a7.07,7.07,0,0,0,.21,2,1.33,1.33,0,0,0,.73.86,4.63,4.63,0,0,0,1.69.22h2a6.07,6.07,0,0,0,4.91-2.68,14.89,14.89,0,0,0,2.7-7.12h1c-.08,1-.13,2.29-.13,3.87a68.91,68.91,0,0,0,.29,7q-2.83-.14-9.57-.13-9.11,0-13.62.13v-.88a7.21,7.21,0,0,0,2-.35,1.52,1.52,0,0,0,.88-1,9.18,9.18,0,0,0,.23-2.42V56.68a9.24,9.24,0,0,0-.23-2.42,1.48,1.48,0,0,0-.88-1,6.86,6.86,0,0,0-2-.35V52q2.13.13,6.6.13,4.26,0,6.56-.13Z"/><path class="cls-1" d="M318.17,78.36a5.48,5.48,0,0,0,.61,3,2.27,2.27,0,0,0,2.07.92v.92a28.85,28.85,0,0,0-8.69.49v-4a6.82,6.82,0,0,1-6.73,4.09q-3.14,0-4.55-1.71a5.36,5.36,0,0,1-1-2.18,16,16,0,0,1-.31-3.54V65.21a5.48,5.48,0,0,0-.61-2.95,2.27,2.27,0,0,0-2.07-.92v-.92a28.85,28.85,0,0,0,8.69-.49V78.14a5.74,5.74,0,0,0,.52,2.77,2.07,2.07,0,0,0,2,.92A3.57,3.57,0,0,0,311,80.36a5.6,5.6,0,0,0,1.19-3.63V65.21a5.48,5.48,0,0,0-.61-2.95,2.27,2.27,0,0,0-2.07-.92v-.92a25.66,25.66,0,0,0,2.59.13,25.12,25.12,0,0,0,6.1-.62V78.36Z"/><path class="cls-1" d="M332.41,60.41h4.93v.88h-4.93V79.06a3.07,3.07,0,0,0,.44,1.87,1.67,1.67,0,0,0,1.4.55c1.2,0,2.14-.88,2.84-2.64l.71.39q-1.59,4.53-5.72,4.53a5.49,5.49,0,0,1-4.18-1.5A4.82,4.82,0,0,1,326.71,80a18,18,0,0,1-.31-3.8V61.28h-3.51V60.4h3.51V54.59a12.26,12.26,0,0,0,6-1.41v7.23Z"/><path class="cls-1" d="M348.37,63.89q1.88-4.1,6.81-4.09,3.26,0,4.6,1.72a5,5,0,0,1,1,2.18,16.09,16.09,0,0,1,.31,3.54V79.07a3.88,3.88,0,0,0,.59,2.49,2.64,2.64,0,0,0,2.09.68v.92c-2.9-.12-4.73-.18-5.51-.18q-1.42,0-5.43.18v-.92a2.06,2.06,0,0,0,1.76-.68,4.48,4.48,0,0,0,.5-2.49V65.39a5.4,5.4,0,0,0-.56-2.73,2.17,2.17,0,0,0-2-.92,3.68,3.68,0,0,0-2.94,1.43,5.49,5.49,0,0,0-1.19,3.63V79.07a4.5,4.5,0,0,0,.5,2.49,2,2,0,0,0,1.75.68v.92C348,83,346.24,83,345.46,83q-1.43,0-5.76.18v-.92a2.7,2.7,0,0,0,2.07-.68,3.84,3.84,0,0,0,.61-2.49V54a5.48,5.48,0,0,0-.61-2.95,2.27,2.27,0,0,0-2.07-.92v-.92a28.85,28.85,0,0,0,8.69-.49V63.89Z"/><path class="cls-1" d="M374.58,62.68a16.14,16.14,0,0,0-1.23,6.05h6.56a17.67,17.67,0,0,0-.65-5.74c-.49-1.51-1.22-2.27-2.19-2.27s-1.83.65-2.49,2m9.76,14,.75.26a10.5,10.5,0,0,1-3,4.86,7.54,7.54,0,0,1-5.37,2,8.9,8.9,0,0,1-7-3q-2.61-3-2.61-8.77t2.8-9.08a9.45,9.45,0,0,1,7.44-3.14q7.86,0,7.85,9.77H373.43c0,.44,0,1.13,0,2.07a13.23,13.23,0,0,0,.77,4.84,6.08,6.08,0,0,0,2,2.82,4.46,4.46,0,0,0,2.65.88c2.29,0,4.12-1.19,5.52-3.54"/><path class="cls-1" d="M405.81,61a4.39,4.39,0,0,1,1,2.86,3.9,3.9,0,0,1-.9,2.66,3,3,0,0,1-2.36,1,3.18,3.18,0,0,1-2.25-.77,2.64,2.64,0,0,1-.84-2,4,4,0,0,1,1.84-3.43,2.12,2.12,0,0,0-.5,0,2,2,0,0,0-.67.09,4,4,0,0,0-2.69,2A6.66,6.66,0,0,0,397.29,67V78.63a3.53,3.53,0,0,0,.94,2.82,4.59,4.59,0,0,0,3,.79v.92c-.39,0-.71,0-1,0-2.84-.09-4.73-.13-5.68-.13-.75,0-2.47.05-5.14.13a6.47,6.47,0,0,1-.83,0v-.92a2.67,2.67,0,0,0,2.09-.68,3.91,3.91,0,0,0,.59-2.48V65.22a5.7,5.7,0,0,0-.59-2.95,2.27,2.27,0,0,0-2.09-.92v-.92a25.66,25.66,0,0,0,2.59.13,24.51,24.51,0,0,0,6.1-.62V64A7.39,7.39,0,0,1,399.6,61,5.36,5.36,0,0,1,403,59.8,3.43,3.43,0,0,1,405.81,61"/><path class="cls-1" d="M420.93,78.84v-9a6.33,6.33,0,0,1-2.13,1.93,10.33,10.33,0,0,0-2.47,2.2,5.14,5.14,0,0,0-.83,3.17,4.15,4.15,0,0,0,.71,2.66,2.32,2.32,0,0,0,1.88.86,3.42,3.42,0,0,0,2.84-1.8m-10,3.17a5.47,5.47,0,0,1-1.32-3.83,5.32,5.32,0,0,1,1-3.28,6.82,6.82,0,0,1,2.38-2,33.91,33.91,0,0,1,3.57-1.5,17.94,17.94,0,0,0,3.36-1.52A2.11,2.11,0,0,0,420.92,68V64.58a4.57,4.57,0,0,0-.81-2.88,3,3,0,0,0-2.53-1,4.08,4.08,0,0,0-3.05,1.06,3.89,3.89,0,0,1,1.82,1.32,3.4,3.4,0,0,1,.65,2.07,3.07,3.07,0,0,1-1,2.38,3.32,3.32,0,0,1-2.34.88,2.72,2.72,0,0,1-2.25-1,3.67,3.67,0,0,1-.79-2.42,3.77,3.77,0,0,1,.56-2.09A5.63,5.63,0,0,1,413,61.3a9.49,9.49,0,0,1,2.78-1.1,15.65,15.65,0,0,1,3.61-.4,12.8,12.8,0,0,1,3.55.44,5.48,5.48,0,0,1,2.51,1.5,5,5,0,0,1,1.23,2.38,18.37,18.37,0,0,1,.31,3.83v12a4,4,0,0,0,.19,1.49.72.72,0,0,0,.73.44,2.5,2.5,0,0,0,1.5-.75l.42.75a6.81,6.81,0,0,1-4.6,1.63,4.32,4.32,0,0,1-3.22-1,3.77,3.77,0,0,1-1-2.59,6.69,6.69,0,0,1-6.14,3.56,5.15,5.15,0,0,1-4-1.46"/><path class="cls-1" d="M452.39,61.51a4.88,4.88,0,0,1,1,2.15,17.57,17.57,0,0,1,.29,3.56V79.05a3.8,3.8,0,0,0,.61,2.49,2.63,2.63,0,0,0,2.07.68v.92c-2.79-.12-4.62-.18-5.52-.18s-2.65.06-5.43.18v-.92a2,2,0,0,0,1.75-.68,4.46,4.46,0,0,0,.5-2.49V65.37a5.4,5.4,0,0,0-.56-2.73,2.17,2.17,0,0,0-2-.92,3.65,3.65,0,0,0-2.92,1.47,5.51,5.51,0,0,0-1.21,3.63V79.05a4.5,4.5,0,0,0,.5,2.49,2,2,0,0,0,1.75.68v.92C440.63,83,438.9,83,438,83s-2.76.06-5.76.18v-.92a2.67,2.67,0,0,0,2.09-.68,3.92,3.92,0,0,0,.59-2.49V65.19a5.7,5.7,0,0,0-.59-2.95,2.27,2.27,0,0,0-2.09-.92V60.4a25.66,25.66,0,0,0,2.59.13,24.51,24.51,0,0,0,6.1-.62v4c1.25-2.73,3.54-4.09,6.85-4.09,2.12,0,3.65.59,4.6,1.73"/><path class="cls-1" d="M484.31,51.57a12.44,12.44,0,0,1,2.63,1.28l.81.44a1.41,1.41,0,0,0,.61.18A.65.65,0,0,0,489,53a5.38,5.38,0,0,0,.33-1.47h1c-.14,2-.21,5.31-.21,10h-1a15.08,15.08,0,0,0-1-4.53,8.79,8.79,0,0,0-2.42-3.49A5.46,5.46,0,0,0,482,52.21a4.6,4.6,0,0,0-3.32,1.21,4.31,4.31,0,0,0-1.27,3.28,5.45,5.45,0,0,0,.63,2.68,7.42,7.42,0,0,0,1.75,2.09q1.13.95,3.47,2.57l1.34,1a40,40,0,0,1,3.88,3,10.65,10.65,0,0,1,2.32,3,8.27,8.27,0,0,1,.9,3.94,7.88,7.88,0,0,1-1.38,4.73,8.39,8.39,0,0,1-3.74,2.88,13.78,13.78,0,0,1-5.24,1,14.68,14.68,0,0,1-3.89-.44,12.23,12.23,0,0,1-2.84-1.19,3,3,0,0,0-1.42-.62.65.65,0,0,0-.59.46,5.38,5.38,0,0,0-.33,1.47h-1q.17-2.78.17-11.87h1a17.65,17.65,0,0,0,2.09,8A6,6,0,0,0,480,82.34a5.43,5.43,0,0,0,3.72-1.28,4.6,4.6,0,0,0,1.46-3.65,6.28,6.28,0,0,0-1.5-4.22,24.36,24.36,0,0,0-4.76-4,49.11,49.11,0,0,1-4-3,10.9,10.9,0,0,1-2.47-3,8.2,8.2,0,0,1-1-4,7.62,7.62,0,0,1,1.27-4.47,7.5,7.5,0,0,1,3.4-2.7,12.08,12.08,0,0,1,4.68-.88,10.65,10.65,0,0,1,3.46.42"/><path class="cls-1" d="M503.68,62.37a16.14,16.14,0,0,0-1.23,6.05H509a17.67,17.67,0,0,0-.65-5.74c-.49-1.51-1.22-2.26-2.19-2.26s-1.84.64-2.49,1.95m9.75,14,.75.26a10.5,10.5,0,0,1-3,4.86,7.58,7.58,0,0,1-5.37,2,8.9,8.9,0,0,1-7-3q-2.61-3-2.61-8.77t2.8-9.08a9.49,9.49,0,0,1,7.44-3.14q7.86,0,7.85,9.77H502.52c0,.44,0,1.13,0,2.07a13.23,13.23,0,0,0,.77,4.84,6.15,6.15,0,0,0,2,2.82,4.46,4.46,0,0,0,2.65.88c2.29,0,4.13-1.19,5.52-3.54"/><path class="cls-1" d="M551.89,81.24a2.63,2.63,0,0,0,2.07.68v.92c-2.78-.12-4.62-.18-5.51-.18s-2.51.06-5.18.18v-.92a1.76,1.76,0,0,0,1.57-.66,4.85,4.85,0,0,0,.44-2.51V65.07a5.63,5.63,0,0,0-.52-2.75,2.09,2.09,0,0,0-2-.9,3.44,3.44,0,0,0-2.69,1.36,6,6,0,0,0-1.36,3.34V78.74a4.33,4.33,0,0,0,.52,2.48,2.25,2.25,0,0,0,1.9.68v.92c-2.67-.12-4.43-.18-5.26-.18s-2.51.06-5.18.18V81.9a1.74,1.74,0,0,0,1.57-.68,5,5,0,0,0,.44-2.48V65.06a6.26,6.26,0,0,0-.46-2.75,1.82,1.82,0,0,0-1.8-.9,3.56,3.56,0,0,0-2.86,1.47,5.6,5.6,0,0,0-1.19,3.63V78.74a5,5,0,0,0,.44,2.48,1.7,1.7,0,0,0,1.57.68v.92c-2.45-.12-4.09-.18-4.93-.18s-2.76.06-5.77.18V81.9a2.67,2.67,0,0,0,2.09-.68,3.91,3.91,0,0,0,.59-2.48V64.88a5.7,5.7,0,0,0-.59-2.95,2.27,2.27,0,0,0-2.09-.92v-.92a25.81,25.81,0,0,0,2.59.13,25,25,0,0,0,6.1-.62v4a6.53,6.53,0,0,1,6.47-4.09q3.18,0,4.6,1.72a4.87,4.87,0,0,1,1,2.64,7,7,0,0,1,2.84-3.36,8.18,8.18,0,0,1,4.09-1c2.11,0,3.65.57,4.59,1.72a4.8,4.8,0,0,1,1,2.16,18,18,0,0,1,.29,3.56V78.75a3.73,3.73,0,0,0,.6,2.49"/><path class="cls-1" d="M565,49.66a3.52,3.52,0,0,1,0,5,4.74,4.74,0,0,1-5.56,0,3.52,3.52,0,0,1,0-5,4.74,4.74,0,0,1,5.56,0m.48,29.09a3.75,3.75,0,0,0,.61,2.48,2.63,2.63,0,0,0,2.07.68v.92c-2.79-.12-4.64-.18-5.56-.18s-2.8.06-5.81.18v-.92a2.67,2.67,0,0,0,2.09-.68,3.91,3.91,0,0,0,.59-2.48V64.89a5.6,5.6,0,0,0-.59-3,2.27,2.27,0,0,0-2.09-.92V60.1a25.66,25.66,0,0,0,2.59.13,24.51,24.51,0,0,0,6.1-.62Z"/><path class="cls-1" d="M591.3,61.2a4.88,4.88,0,0,1,1,2.15,17.57,17.57,0,0,1,.29,3.56V78.74a3.8,3.8,0,0,0,.61,2.49,2.63,2.63,0,0,0,2.07.68v.92c-2.79-.12-4.62-.18-5.52-.18s-2.65.06-5.43.18v-.92a2,2,0,0,0,1.75-.68,4.46,4.46,0,0,0,.5-2.49V65.06a5.4,5.4,0,0,0-.56-2.73,2.19,2.19,0,0,0-2-.92,3.65,3.65,0,0,0-2.92,1.47,5.51,5.51,0,0,0-1.21,3.63V78.74a4.5,4.5,0,0,0,.5,2.49,2,2,0,0,0,1.75.68v.92c-2.56-.12-4.29-.18-5.18-.18s-2.76.06-5.76.18v-.92a2.67,2.67,0,0,0,2.09-.68,3.92,3.92,0,0,0,.59-2.49V64.88a5.7,5.7,0,0,0-.59-2.95,2.27,2.27,0,0,0-2.09-.92v-.92a25.66,25.66,0,0,0,2.59.13,24.51,24.51,0,0,0,6.1-.62v4c1.25-2.73,3.54-4.09,6.85-4.09,2.12,0,3.65.59,4.6,1.73"/><path class="cls-1" d="M609.64,78.53v-9a6.33,6.33,0,0,1-2.13,1.93,10.33,10.33,0,0,0-2.47,2.2,5.14,5.14,0,0,0-.83,3.17,4.15,4.15,0,0,0,.71,2.66,2.32,2.32,0,0,0,1.88.86,3.39,3.39,0,0,0,2.84-1.8m-10,3.17a5.47,5.47,0,0,1-1.32-3.83,5.32,5.32,0,0,1,1-3.28,6.82,6.82,0,0,1,2.38-2,33.91,33.91,0,0,1,3.57-1.5,17.94,17.94,0,0,0,3.36-1.52,2.11,2.11,0,0,0,1.06-1.87V64.27a4.57,4.57,0,0,0-.81-2.88,3,3,0,0,0-2.53-1,4.08,4.08,0,0,0-3,1.06,3.89,3.89,0,0,1,1.82,1.32,3.4,3.4,0,0,1,.65,2.07,3.07,3.07,0,0,1-1,2.38,3.32,3.32,0,0,1-2.34.88,2.72,2.72,0,0,1-2.25-1,3.67,3.67,0,0,1-.79-2.42,3.77,3.77,0,0,1,.56-2.09,5.63,5.63,0,0,1,1.73-1.6,9.49,9.49,0,0,1,2.78-1.1,15.65,15.65,0,0,1,3.61-.4,12.8,12.8,0,0,1,3.55.44,5.48,5.48,0,0,1,2.51,1.5,5,5,0,0,1,1.23,2.38,18.37,18.37,0,0,1,.31,3.83v12a4,4,0,0,0,.19,1.49.72.72,0,0,0,.73.44,2.5,2.5,0,0,0,1.5-.75l.42.75a6.81,6.81,0,0,1-4.6,1.63,4.32,4.32,0,0,1-3.22-1,3.77,3.77,0,0,1-1-2.59,6.69,6.69,0,0,1-6.14,3.56,5.14,5.14,0,0,1-4-1.46"/><path class="cls-1" d="M638.17,60.68a4.39,4.39,0,0,1,1,2.86,3.9,3.9,0,0,1-.9,2.66,3,3,0,0,1-2.36,1,3.18,3.18,0,0,1-2.25-.77,2.64,2.64,0,0,1-.84-2A4,4,0,0,1,634.62,61a2.12,2.12,0,0,0-.5,0,2,2,0,0,0-.67.09,4,4,0,0,0-2.69,2,6.66,6.66,0,0,0-1.11,3.61V78.33a3.53,3.53,0,0,0,.94,2.82,4.59,4.59,0,0,0,3,.79v.92a8.5,8.5,0,0,1-1,0c-2.84-.09-4.73-.13-5.68-.13-.75,0-2.47,0-5.14.13a6.47,6.47,0,0,1-.83,0v-.92a2.67,2.67,0,0,0,2.09-.68,3.91,3.91,0,0,0,.59-2.48V64.92a5.7,5.7,0,0,0-.59-3,2.27,2.27,0,0,0-2.09-.92v-.92a25.66,25.66,0,0,0,2.59.13,24.51,24.51,0,0,0,6.1-.62v4.09a7.39,7.39,0,0,1,2.3-3.06,5.36,5.36,0,0,1,3.39-1.16,3.33,3.33,0,0,1,2.82,1.17"/><path class="cls-1" d="M662.15,60.1V61a3.22,3.22,0,0,0-1.57,1.12,9,9,0,0,0-1.31,2.66l-7.48,22.12A7.37,7.37,0,0,1,650,90a5.27,5.27,0,0,1-3.63,1.1,5.74,5.74,0,0,1-3.16-.9,2.93,2.93,0,0,1-1.4-2.62,2.77,2.77,0,0,1,.92-2.18,3.52,3.52,0,0,1,2.42-.81,3.38,3.38,0,0,1,2.28.73,2.55,2.55,0,0,1,.86,2,2.86,2.86,0,0,1-.54,1.69,3.31,3.31,0,0,1-1.55,1.16,6.91,6.91,0,0,0,1,.05c1.73,0,3-1.16,3.8-3.47l.67-2.11-8.86-21.2a5.26,5.26,0,0,0-1.3-2,2.12,2.12,0,0,0-1.3-.48V60.1c1.84.18,3.75.26,5.72.26q2.46,0,5.81-.26V61a7.34,7.34,0,0,0-2,.2,1,1,0,0,0-.65,1,3.67,3.67,0,0,0,.29,1.23l5.1,13L657.29,68A12,12,0,0,0,658,64.5q0-3.21-3.09-3.52V60.1c1.31.09,2.66.13,4,.13a26.93,26.93,0,0,0,3.23-.13"/><path class="cls-1" d="M32.51,41.36V36.82H21.29v-26l16.55,8.41V85c0,17.38,13.51,31.61,30,31.61s30-14.22,30-31.61v3.08c0,22.18-17.23,40.32-38.3,40.32s-38.3-18.15-38.3-40.32V41.35H32.51Z"/><path class="cls-2" d="M67.87,112.48C82.27,112.48,94,100.14,94,85h0V29.14L71.73,40.45V89.31c0,10.27-7.91,18.6-17.67,18.6l-.61,0a25,25,0,0,0,14.42,4.6"/><path class="cls-1" d="M59.59,132.49c-.83,0-1.65,0-2.47-.08C34.91,131.58,17,112.21,17,88.63V41.36H5.76V36.82H17V8.63L0,0V88c0,28.34,22,51.53,48.94,51.53a47.48,47.48,0,0,0,33.74-14.32,40.37,40.37,0,0,1-23.09,7.28"/><path class="cls-3" d="M94,54.47c0,16.34-15.4,53.39-40.54,53.41a25.09,25.09,0,0,0,14.42,4.59C82.27,112.47,94,100.13,94,85h0V54.47Z"/></g></g></svg>